<svg width="54" height="54" viewBox="0 0 54 54" fill="none" xmlns="http://www.w3.org/2000/svg">
<rect x="24" y="7" width="21.1304" height="43.4348" fill="#8BAAE4"/>
<path d="M43.1424 4.10547H10.8555C7.14297 4.10547 4.10547 7.14297 4.10547 10.8555V43.1458C4.10547 46.8583 7.14297 49.8958 10.8555 49.8958H43.1458C46.8583 49.8958 49.8958 46.8583 49.8958 43.1458V10.8555C49.8924 7.14297 46.8583 4.10547 43.1424 4.10547ZM42.7087 28.5455H37.275V48.2049H29.1446V28.5455H25.0777V21.7685H29.1446V17.7017C29.1446 12.1734 31.4396 8.88447 37.9702 8.88447H43.3989V15.6598H40.0037C37.4657 15.6598 37.2969 16.6098 37.2969 18.3767L37.275 21.7685H43.4259L42.7087 28.5455Z" fill="white"/>
</svg>
