<svg width="51" height="41" viewBox="0 0 51 41" fill="none" xmlns="http://www.w3.org/2000/svg">
<path d="M50.3427 5.25C48.514 6.08125 46.5427 6.6275 44.5002 6.88875C46.5902 5.63 48.2052 3.635 48.9652 1.23625C46.994 2.42375 44.809 3.255 42.5052 3.73C40.629 1.6875 37.9927 0.5 35.0002 0.5C29.419 0.5 24.859 5.06 24.859 10.6888C24.859 11.4963 24.954 12.28 25.1202 13.0163C16.6652 12.5888 9.13647 8.5275 4.12522 2.37625C3.24646 3.8725 2.74771 5.63 2.74771 7.4825C2.74771 11.0212 4.52896 14.1562 7.28396 15.9375C5.59771 15.9375 4.03022 15.4625 2.65272 14.75V14.8212C2.65272 19.7612 6.16772 23.8937 10.8227 24.82C9.32819 25.229 7.75919 25.2859 6.23897 24.9863C6.88403 27.0109 8.14737 28.7825 9.85138 30.052C11.5554 31.3214 13.6144 32.025 15.739 32.0638C12.1376 34.9148 7.67346 36.4559 3.08021 36.4337C2.27271 36.4337 1.46521 36.3862 0.657715 36.2912C5.17021 39.1888 10.5377 40.875 16.2852 40.875C35.0002 40.875 45.284 25.3425 45.284 11.8763C45.284 11.425 45.284 10.9975 45.2602 10.5462C47.2552 9.12125 48.9652 7.31625 50.3427 5.25Z" fill="#8BAAE4"/>
</svg>
