<svg width="36" height="42" viewBox="0 0 36 42" fill="none" xmlns="http://www.w3.org/2000/svg">
<g filter="url(#filter0_d_255_482)">
<path d="M11.5385 8.02351C11.5385 6.51962 11.9174 5.04949 12.6274 3.79905C13.3374 2.54861 14.3466 1.574 15.5273 0.998488C16.708 0.422972 18.0072 0.272391 19.2606 0.565787C20.514 0.859182 21.6653 1.58338 22.569 2.64679C23.4727 3.71021 24.0881 5.06508 24.3374 6.54008C24.5867 8.01508 24.4587 9.54395 23.9697 10.9334C23.4806 12.3228 22.6524 13.5103 21.5898 14.3459C20.5272 15.1814 19.278 15.6273 18 15.6273C16.2863 15.6273 14.6428 14.8262 13.431 13.4002C12.2192 11.9742 11.5385 10.0402 11.5385 8.02351ZM28.7692 33.3696H7.23077C6.37392 33.3696 5.55216 32.9691 4.94627 32.2561C4.34038 31.5431 4 30.576 4 29.5677C4 26.5427 5.02115 23.6416 6.83881 21.5026C8.65647 19.3636 11.1217 18.162 13.6923 18.162H22.3077C24.8783 18.162 27.3435 19.3636 29.1612 21.5026C30.9788 23.6416 32 26.5427 32 29.5677C32 30.576 31.6596 31.5431 31.0537 32.2561C30.4478 32.9691 29.6261 33.3696 28.7692 33.3696Z" fill="white"/>
</g>
<defs>
<filter id="filter0_d_255_482" x="0" y="0.419678" width="36" height="40.95" filterUnits="userSpaceOnUse" color-interpolation-filters="sRGB">
<feFlood flood-opacity="0" result="BackgroundImageFix"/>
<feColorMatrix in="SourceAlpha" type="matrix" values="0 0 0 0 0 0 0 0 0 0 0 0 0 0 0 0 0 0 127 0" result="hardAlpha"/>
<feOffset dy="4"/>
<feGaussianBlur stdDeviation="2"/>
<feComposite in2="hardAlpha" operator="out"/>
<feColorMatrix type="matrix" values="0 0 0 0 0 0 0 0 0 0 0 0 0 0 0 0 0 0 0.25 0"/>
<feBlend mode="normal" in2="BackgroundImageFix" result="effect1_dropShadow_255_482"/>
<feBlend mode="normal" in="SourceGraphic" in2="effect1_dropShadow_255_482" result="shape"/>
</filter>
</defs>
</svg>
