<svg width="59" height="69" viewBox="0 0 59 69" fill="none" xmlns="http://www.w3.org/2000/svg">
<g filter="url(#filter0_d_255_461)">
<mask id="mask0_255_461" style="mask-type:luminance" maskUnits="userSpaceOnUse" x="4" y="0" width="51" height="61">
<path d="M4 60.0902V0.121338H54.9441V60.0902H4Z" fill="black"/>
</mask>
<g mask="url(#mask0_255_461)">
<path fill-rule="evenodd" clip-rule="evenodd" d="M54.944 30.0869C54.944 46.6571 43.529 60.0901 29.4481 60.0901C15.3672 60.0901 3.95215 46.6571 3.95215 30.0869C3.95215 13.5167 15.3672 0.0837402 29.4481 0.0837402C43.529 0.0837402 54.944 13.5167 54.944 30.0869Z" fill="#8BAAE4"/>
</g>
<path fill-rule="evenodd" clip-rule="evenodd" d="M39.806 46.9639H19.0905C18.4566 46.9639 17.8486 46.6676 17.4004 46.1401C16.9521 45.6126 16.7003 44.8971 16.7003 44.1511L13.6902 28.2119H14.0447L16.7003 42.2759C16.7003 43.0219 16.9521 43.7374 17.4004 44.2649C17.8486 44.7924 18.4566 45.0887 19.0905 45.0887H39.806C40.4399 45.0887 41.0479 44.7924 41.4961 44.2649C41.9444 43.7374 42.1962 43.0219 42.1962 42.2759L44.8518 28.2119H45.2063L42.1962 44.1511C42.1962 44.8971 41.9444 45.6126 41.4961 46.1401C41.0479 46.6676 40.4399 46.9639 39.806 46.9639ZM39.0092 40.4007V36.6503C39.0092 36.153 38.8414 35.676 38.5425 35.3243C38.2437 34.9727 37.8384 34.7751 37.4157 34.7751C36.9931 34.7751 36.5878 34.9727 36.289 35.3243C35.9901 35.676 35.8223 36.153 35.8223 36.6503V34.7751C35.8223 34.2778 35.9901 33.8008 36.289 33.4491C36.5878 33.0975 36.9931 32.8999 37.4157 32.8999C37.8384 32.8999 38.2437 33.0975 38.5425 33.4491C38.8414 33.8008 39.0092 34.2778 39.0092 34.7751V40.4007ZM31.0418 40.4007V36.6503C31.0418 36.153 30.8739 35.676 30.575 35.3243C30.2762 34.9727 29.8709 34.7751 29.4483 34.7751C29.0256 34.7751 28.6203 34.9727 28.3215 35.3243C28.0227 35.676 27.8548 36.153 27.8548 36.6503V34.7751C27.8548 34.2778 28.0227 33.8008 28.3215 33.4491C28.6203 33.0975 29.0256 32.8999 29.4483 32.8999C29.8709 32.8999 30.2762 33.0975 30.575 33.4491C30.8739 33.8008 31.0418 34.2778 31.0418 34.7751V40.4007ZM23.0743 40.4007V36.6503C23.0743 36.153 22.9064 35.676 22.6076 35.3243C22.3087 34.9727 21.9034 34.7751 21.4808 34.7751C21.0582 34.7751 20.6529 34.9727 20.354 35.3243C20.0552 35.676 19.8873 36.153 19.8873 36.6503V34.7751C19.8873 34.2778 20.0552 33.8008 20.354 33.4491C20.6529 33.0975 21.0582 32.8999 21.4808 32.8999C21.9034 32.8999 22.3087 33.0975 22.6076 33.4491C22.9064 33.8008 23.0743 34.2778 23.0743 34.7751V40.4007Z" fill="#ABABAB"/>
<path fill-rule="evenodd" clip-rule="evenodd" d="M39.0091 40.4006C39.0091 40.8979 38.8412 41.3749 38.5424 41.7265C38.2436 42.0782 37.8382 42.2758 37.4156 42.2758C36.993 42.2758 36.5877 42.0782 36.2889 41.7265C35.99 41.3749 35.8221 40.8979 35.8221 40.4006V34.775C35.8221 34.2776 35.99 33.8007 36.2889 33.449C36.5877 33.0973 36.993 32.8998 37.4156 32.8998C37.8382 32.8998 38.2436 33.0973 38.5424 33.449C38.8412 33.8007 39.0091 34.2776 39.0091 34.775V40.4006ZM31.0416 40.4006C31.0416 40.8979 30.8738 41.3749 30.5749 41.7265C30.2761 42.0782 29.8708 42.2758 29.4481 42.2758C29.0255 42.2758 28.6202 42.0782 28.3214 41.7265C28.0225 41.3749 27.8546 40.8979 27.8546 40.4006V34.775C27.8546 34.2776 28.0225 33.8007 28.3214 33.449C28.6202 33.0973 29.0255 32.8998 29.4481 32.8998C29.8708 32.8998 30.2761 33.0973 30.5749 33.449C30.8738 33.8007 31.0416 34.2776 31.0416 34.775V40.4006ZM23.0742 40.4006C23.0742 40.8979 22.9063 41.3749 22.6074 41.7265C22.3086 42.0782 21.9033 42.2758 21.4807 42.2758C21.058 42.2758 20.6527 42.0782 20.3539 41.7265C20.0551 41.3749 19.8872 40.8979 19.8872 40.4006V34.775C19.8872 34.2776 20.0551 33.8007 20.3539 33.449C20.6527 33.0973 21.058 32.8998 21.4807 32.8998C21.9033 32.8998 22.3086 33.0973 22.6074 33.449C22.9063 33.8007 23.0742 34.2776 23.0742 34.775V40.4006ZM42.9929 22.5862H15.9034C15.2695 22.5862 14.6615 22.8825 14.2133 23.41C13.765 23.9375 13.5132 24.653 13.5132 25.399L16.7002 42.2758C16.7002 43.0218 16.952 43.7372 17.4003 44.2647C17.8485 44.7922 18.4565 45.0886 19.0904 45.0886H39.8059C40.4398 45.0886 41.0478 44.7922 41.496 44.2647C41.9443 43.7372 42.1961 43.0218 42.1961 42.2758L45.3831 25.399C45.3831 24.653 45.1313 23.9375 44.683 23.41C44.2348 22.8825 43.6268 22.5862 42.9929 22.5862Z" fill="#E9E8E8"/>
<path fill-rule="evenodd" clip-rule="evenodd" d="M46.9767 28.2117H45.2063L45.3832 27.2741C45.3832 26.945 45.3354 26.63 45.2469 26.3365H46.9767C47.5663 26.3365 48.0818 25.9596 48.3566 25.3989C48.4965 25.684 48.5701 26.0074 48.5701 26.3365C48.5701 26.6657 48.4965 26.989 48.3567 27.2741C48.2168 27.5592 48.0156 27.7959 47.7734 27.9605C47.5312 28.1251 47.2564 28.2117 46.9767 28.2117Z" fill="#ABABAB"/>
<path fill-rule="evenodd" clip-rule="evenodd" d="M45.2064 28.2119H44.8518L45.2064 26.3367H45.247C45.3354 26.6301 45.3832 26.9452 45.3832 27.2743L45.2064 28.2119Z" fill="#909090"/>
<path fill-rule="evenodd" clip-rule="evenodd" d="M44.8518 28.2119H30.9956L32.1756 26.3367H45.2064L44.8518 28.2119Z" fill="#808080"/>
<path fill-rule="evenodd" clip-rule="evenodd" d="M13.69 28.2117H11.9196C11.6399 28.2117 11.3651 28.1251 11.1229 27.9605C10.8807 27.7959 10.6795 27.5592 10.5396 27.2741C10.3998 26.989 10.3262 26.6657 10.3262 26.3365C10.3262 26.0074 10.3998 25.684 10.5397 25.3989C10.8145 25.9596 11.33 26.3365 11.9196 26.3365H13.6494C13.5588 26.6376 13.5127 26.9547 13.5131 27.2741L13.69 28.2117Z" fill="#ABABAB"/>
<path fill-rule="evenodd" clip-rule="evenodd" d="M14.0446 28.2119H13.6901L13.5132 27.2743C13.5132 26.9452 13.561 26.6301 13.6494 26.3367H13.6901L14.0446 28.2119Z" fill="#909090"/>
<path fill-rule="evenodd" clip-rule="evenodd" d="M27.074 28.2119H14.0447L13.6902 26.3367H28.2539L27.074 28.2119Z" fill="#808080"/>
<path fill-rule="evenodd" clip-rule="evenodd" d="M48.5701 24.4614C48.5701 24.9587 48.4022 25.4357 48.1034 25.7873C47.8045 26.139 47.3992 26.3366 46.9766 26.3366H11.9197C11.497 26.3366 11.0917 26.139 10.7929 25.7873C10.4941 25.4357 10.3262 24.9587 10.3262 24.4614C10.3262 23.964 10.4941 23.4871 10.7929 23.1354C11.0917 22.7837 11.497 22.5862 11.9197 22.5862H46.9766C47.3992 22.5862 47.8045 22.7837 48.1034 23.1354C48.4022 23.4871 48.5701 23.964 48.5701 24.4614Z" fill="#E9E8E8"/>
<path fill-rule="evenodd" clip-rule="evenodd" d="M27.8546 31.9623C27.5395 31.9622 27.2315 31.8522 26.9695 31.6462C26.7075 31.4401 26.5033 31.1473 26.3828 30.8047C26.2622 30.4621 26.2306 30.0851 26.2921 29.7214C26.3535 29.3577 26.5052 29.0236 26.728 28.7613L27.0738 28.2119H30.9954L28.9812 31.4129C28.8336 31.5874 28.658 31.7259 28.4646 31.8202C28.2713 31.9145 28.0639 31.9628 27.8546 31.9623Z" fill="#808080"/>
<path fill-rule="evenodd" clip-rule="evenodd" d="M34.5356 22.5861H30.614L35.8224 14.309C35.9701 14.1345 36.1457 13.9961 36.339 13.9018C36.5324 13.8075 36.7397 13.7592 36.949 13.7595C37.2644 13.7587 37.573 13.8682 37.8354 14.0741C38.0979 14.28 38.3025 14.573 38.4232 14.916C38.5439 15.259 38.5753 15.6364 38.5134 16.0004C38.4515 16.3644 38.2991 16.6986 38.0756 16.9605L34.5356 22.5861Z" fill="#ABABAB"/>
<path fill-rule="evenodd" clip-rule="evenodd" d="M30.9956 28.2119H27.074L28.254 26.3367H32.1756L30.9956 28.2119Z" fill="#6B6B6B"/>
<path fill-rule="evenodd" clip-rule="evenodd" d="M32.1755 26.3366H28.2539L30.6139 22.5862H34.5355L32.1755 26.3366Z" fill="#808080"/>
<path fill-rule="evenodd" clip-rule="evenodd" d="M38.0755 12.4338C38.2236 12.6078 38.3411 12.8145 38.4212 13.042C38.5014 13.2695 38.5427 13.5133 38.5427 13.7596C38.5427 14.0059 38.5014 14.2497 38.4212 14.4772C38.3411 14.7047 38.2236 14.9114 38.0755 15.0854L28.9814 29.5375C28.8344 29.7166 28.6585 29.8595 28.4641 29.9578C28.2697 30.0561 28.0606 30.1078 27.849 30.1099C27.6375 30.1121 27.4276 30.0647 27.2318 29.9704C27.036 29.8761 26.858 29.7369 26.7084 29.5608C26.5588 29.3847 26.4405 29.1753 26.3604 28.9449C26.2802 28.7144 26.2399 28.4675 26.2418 28.2185C26.2436 27.9695 26.2876 27.7235 26.3711 27.4947C26.4546 27.2659 26.576 27.059 26.7282 26.886L35.8223 12.4338C35.9701 12.2596 36.1457 12.1213 36.339 12.0269C36.5324 11.9326 36.7396 11.884 36.9489 11.884C37.1581 11.884 37.3654 11.9326 37.5587 12.0269C37.752 12.1213 37.9276 12.2596 38.0755 12.4338Z" fill="#B3B3B3"/>
</g>
<defs>
<filter id="filter0_d_255_461" x="0" y="0.121338" width="58.9441" height="67.9688" filterUnits="userSpaceOnUse" color-interpolation-filters="sRGB">
<feFlood flood-opacity="0" result="BackgroundImageFix"/>
<feColorMatrix in="SourceAlpha" type="matrix" values="0 0 0 0 0 0 0 0 0 0 0 0 0 0 0 0 0 0 127 0" result="hardAlpha"/>
<feOffset dy="4"/>
<feGaussianBlur stdDeviation="2"/>
<feComposite in2="hardAlpha" operator="out"/>
<feColorMatrix type="matrix" values="0 0 0 0 0 0 0 0 0 0 0 0 0 0 0 0 0 0 0.25 0"/>
<feBlend mode="normal" in2="BackgroundImageFix" result="effect1_dropShadow_255_461"/>
<feBlend mode="normal" in="SourceGraphic" in2="effect1_dropShadow_255_461" result="shape"/>
</filter>
</defs>
</svg>
