<svg width="407" height="137" viewBox="0 0 407 137" fill="none" xmlns="http://www.w3.org/2000/svg">
<g clip-path="url(#clip0_267_2)">
<path d="M36.0001 115.8C29.2001 112.9 27.1001 111.4 24.5001 107.2C21.7001 102.9 21.7001 102.5 22.8001 97.1C23.5001 94 24.4001 91.4 25.0001 91.2C25.5001 91 26.0001 90.3 26.0001 89.7C26.0001 89 27.0001 88 28.3001 87.5C30.7001 86.4001 39.0001 70.8001 39.0001 67.3001C39.0001 66.6001 39.5001 66 40.0001 66C40.6001 66 41.0001 65.4 41.0001 64.7C41.0001 62.5 46.7001 58 49.4001 58C53.2001 58 55.0001 59 56.6001 62.2C58.2001 65.3 57.8001 68.4 55.3001 71.2C53.6001 73.1 54.2001 76.3 56.9001 79.5C60.2001 83.6 64.0001 91 64.0001 93.5C64.0001 94.6 64.5001 96.2 65.0001 97C65.8001 98.3 66.5001 98.0001 69.0001 95.3001C70.6001 93.5001 72.0001 91.2 72.0001 90.1C72.0001 89 72.5001 87.8 73.0001 87.5C73.6001 87.2001 74.0001 85.9 74.0001 84.7C74.0001 83.5 74.7001 80.7001 75.5001 78.5C77.1001 73.9001 77.4001 70.6001 76.1001 71.4001C74.7001 72.3001 70.5001 69.7001 70.2001 67.8001C69.9001 65.8001 71.7001 61.9 73.4001 60.8C74.0001 60.4 75.7001 60 77.1001 60C80.5001 60 81.3001 58.9 83.5001 51.5C84.5001 48.2 85.9001 43.3 86.8001 40.7C89.1001 33.1 94.5001 30.7001 98.9001 35.4001C101.4 38.0001 101.4 38.6 97.7001 52C96.8001 55 96.2001 57.6 96.3001 57.6C96.4001 57.7 98.3001 58.1 100.5 58.6C104 59.4 104.5 60 104.7 62.5C105.1 67.1 102.8 69.2001 97.0001 69.8001C92.5001 70.2001 91.9001 70.6001 91.4001 72.9001C91.1001 74.3001 90.5001 76.3 89.9001 77.2C89.4001 78.2 89.0001 80.1001 89.0001 81.4001C89.0001 82.8001 88.6001 84.2001 88.0001 84.5C87.5001 84.8 87.0001 86.4001 87.0001 88C87.0001 89.6 86.6001 91.2001 86.0001 91.5C85.5001 91.8 85.0001 93.9001 85.0001 96C85.0001 98.9 85.5001 100.2 86.9001 101C91.0001 103.1 98.0001 99.5 100.7 94C102.5 90.1 107 75.3 107 73.1C107 72 107.5 70.8 108 70.5C108.5 70.2001 109 69.1 109 68.1C109 65.5 115.5 58.4 119.2 57.1C121 56.4 123.3 55.4 124.3 54.9C126.9 53.5 136.8 55 140.3 57.4C142.1 58.6 144.5 61.5 145.7 63.8C147.9 67.9 147.9 68.3001 146.4 74.3001C145.5 77.7001 144.6 81.5001 144.3 82.8001C144 84.0001 143.4 85 142.9 85C142.4 85 142 86.4 142 88.1C142 91 142.2 91.2001 144.7 90.5C148.2 89.7001 154 83.7 154 81.1C154 80 154.5 78.8 155 78.5C155.6 78.2001 156 76.8 156 75.5C156 74.2001 156.4 72.9 156.9 72.6C158.1 71.8 159.1 64.8 158.1 63.6C155.1 59.7 157.3 49.7 161.3 48.6C167.6 46.9 172.2 49.5 173.9 55.6C174.4 57.5 175.5 58.7 177.1 59.1C182.5 60.3 186 62.3 188.6 65.7C191.7 69.7 191.6 71.8 187.5 84.5C184.6 93.7001 184.5 94.9 186.4 95.6C188.3 96.3 192 94.3 192 92.5C192 91.7001 192.4 91 192.8 91C194 91 196.5 85.2001 198 79C198.8 76 199.7 73.1 200.2 72.6C200.6 72 201 70.6001 201 69.3001C201 64.7001 205.1 58 210.3 54.2C216.7 49.5 224.8 48.8 231 52.3C234 54 236.3 56.2 237.7 59.1C240.1 63.4 240.8 70.4001 239 71.5C238.5 71.8 238 72.8 238 73.6C238 76.4 231.8 81.9 226.8 83.6C222.1 85.1 216.4 85.1 212.9 83.6C211.7 83.1 211.1 83.6 210.6 85.6C209.5 89.7 214 94 219.5 94C226.9 94 232.9 91.5 237.7 86.5C240 84 242 81.1 242 80.2C242.1 76.7 245.6 73.6 249.5 73.6C251.5 73.6 253.5 74.2001 254 75C255.5 77.4001 253.7 84 249.7 90.5C248 93.3 240.7 100 239.3 100C238.7 100 237.4 100.7 236.6 101.5C234.9 103.3 223.5 106 217.8 106C215.8 106 212.8 105.5 211.3 104.9C203.8 101.8 202 100.8 202 99.7C202 99 201.2 99.4 200.2 100.6C199.3 101.8 197.8 103 197 103.4C196.2 103.8 194.4 104.7 193 105.5C189.4 107.6 181.1 107.4 177.5 105.2C175.8 104.2 173.6 101.7 172.5 99.7L170.6 96L173.2 85.8001C176.1 74.2001 175.7 71.7 171.2 72.2C169 72.4 168.4 73.1 168.2 75.5C168 77.2001 167.4 78.9001 166.9 79.4001C166.4 80 166 81.2 166 82.2C166 83.2 164.9 85.8 163.5 88C162.1 90.2001 161 92.4001 161 93C161 93.5 160.6 94 160.1 94C159.7 94 158.2 95.1001 156.9 96.4001C154.2 99.1001 148.3 101 142.5 101C139.1 101 138.2 101.5 136.5 104.1C135.3 105.9 132.3 108.2 129.1 109.7C124.5 111.8 122.9 112.1 117.6 111.5C114.3 111.1 110.9 110.3 110.3 109.8C109.6 109.2 109 109.1 109 109.4C109 109.8 108.3 109.5 107.5 108.6C106.2 107.3 105.3 107.5 99.9001 110.2C94.2001 113.1 93.3001 113.2 86.4001 112.6C80.9001 112.1 78.4001 111.4 77.0001 110C74.4001 107.4 74.3001 107.5 67.7001 111C64.0001 113 59.0001 114.5 52.8001 115.5C42.1001 117.2 39.5001 117.3 36.0001 115.8ZM46.8001 104.4C48.0001 104 49.0001 103.1 49.0001 102.4C49.0001 101.6 49.5001 100.1 50.2001 99.1C51.1001 97.6 50.8001 96.2 48.7001 91.6C47.2001 88.5 45.6001 86 45.0001 86C43.6001 86 43.7001 86.7001 45.6001 89.5C46.8001 91.4001 47.0001 92.6001 46.2001 94.9001C44.7001 99.1001 41.9001 102 39.3001 102C37.7001 102 37.2001 102.4 37.6001 103.5C38.2001 105.1 42.6001 105.5 46.8001 104.4ZM122.1 100C122.6 100 123.7 98.9 124.6 97.5C126 95.3 126 94.9001 124.6 92.8001C123.7 91.6001 123 88.9001 123 86.9001C123 83.1001 124.8 80.8 129.1 79.2C132.3 77.9 134.7 71.1 133 68C131.6 65.4001 126.7 65.4001 124.3 67.9001C123.3 69 121.2 74.1 119.6 79.2C118 84.3 116.4 89.3 115.9 90.2C113.6 94.8 116.2 101.9 119.7 100.6C120.5 100.3 121.6 100 122.1 100ZM224.6 70.7C224.9 70.5 225.1 69.2001 225.2 67.9001C225.4 62.7001 225.1 62 222.2 62C220.6 62 218.6 62.8 217.8 63.8C215.6 66.2 214.6 71.1 216 72C217.1 72.7001 223.6 71.7 224.6 70.7Z" fill="#8BA9E3"/>
<path d="M119 95.5C119 94.7 119.5 94 120 94C120.6 94 121 94.7 121 95.5C121 96.3 120.6 97 120 97C119.5 97 119 96.3 119 95.5Z" fill="#8BA9E3"/>
<path d="M272.7 99.6001C272 97.9001 274.7 92.0001 276.1 92.0001C276.6 92.0001 277 91.6001 277 91.0001C277 90.5001 277.8 89.1001 278.8 88.1001C281.3 85.3001 283.8 82.3001 292.5 71.3001C296.8 65.9001 300.8 61.1001 301.4 60.5001C302 60.0001 304.1 57.5001 306 55.0001C307.9 52.5001 309.7 50.3001 310 50.0001C312.7 47.4001 316.1 39.1001 315.4 36.5001C314.4 32.4001 306 32.5001 306 36.5001C306 37.3001 305.6 38.0001 305 38.0001C304.5 38.0001 304 38.8001 304 39.8001C304 42.0001 297.3 44.4001 294.4 43.4001C288.8 41.4001 287.7 37.5001 290.9 31.2001C297.6 18.2001 318.2 14.8001 327.6 25.2001C330.6 28.4001 332.3 34.4001 331.8 39.4001C331.2 43.8001 327.5 52.4001 325 55.0001C322.6 57.5001 316.5 65.1001 316.1 66.2001C316 66.7001 314.8 68.1001 313.6 69.3001C312.5 70.5001 309.7 73.7001 307.5 76.4001C305.3 79.1001 302.9 81.9001 302.3 82.6001C301.6 83.3001 301 84.3001 301 84.9001C301 86.0001 306.7 86.6001 312.5 86.1001C318.5 85.7001 321.7 86.8001 322.3 89.8001C322.9 92.8001 320.4 97.8001 318 98.4001C314.1 99.5001 307.2 100 290.9 100.5C275.9 101 273.2 100.8 272.7 99.6001Z" fill="#8BA9E3"/>
<path d="M343.5 97.0001C343.8 96.4001 343.3 96.0001 342.3 96.0001C341.3 96.0001 339.4 94.9001 338 93.6001C330.6 86.6001 329 81.1001 331.5 71.8001C336.3 53.7001 342 35.2001 344.5 29.5001C345.9 26.4001 349.2 23.1001 354.8 19.2001C358.7 16.5001 368.4 14.6001 371.1 16.0001C372.1 16.6001 373.8 17.0001 374.9 17.0001C377.9 17.0001 384.6 23.9001 385.8 28.3001C387.5 34.5001 386.3 38.6001 382.3 40.5001C376.4 43.3001 373.2 41.3001 371.5 33.7001C371.2 32.2001 370.3 30.7001 369.5 30.3001C367.1 29.4001 361 31.0001 361 32.4001C361 33.2001 360.3 34.0001 359.5 34.4001C358.7 34.7001 358 35.8001 358 36.9001C358 38.0001 357.6 39.2001 357 39.5001C356.5 39.8001 356 41.1001 356 42.3001C356 44.3001 356.5 44.5001 362.8 44.5001C375.1 44.6001 381.9 50.1001 382.8 60.8001C383.4 67.3001 379.8 81.0001 376.3 85.7001C375.1 87.4001 374 89.3001 374 89.8001C374 90.3001 371 92.2001 367.4 94.0001C361.7 97.0001 359.7 97.4001 351.9 97.7001C346.2 97.9001 343.1 97.6001 343.5 97.0001ZM358.3 84.9001C361.7 83.1001 363.6 80.7001 365 76.4001C365.7 74.3001 366.6 71.5001 367.1 70.2001C368.7 65.9001 368.2 59.6001 366 57.7001C363.2 55.3001 357.9 55.6001 354 58.3001C351.3 60.1001 350.2 62.0001 348.4 68.0001C347.1 72.1001 346 76.8001 346 78.4001C346 84.4001 352.6 87.8001 358.3 84.9001Z" fill="#8BA9E3"/>
<path d="M150 77.1C150 75.9 150.5 75 151 75C151.6 75 152 75.6 152 76.4C152 77.2 151.6 78.2 151 78.5C150.5 78.8 150 78.2 150 77.1Z" fill="#8BA9E3"/>
<path d="M194.6 69.7002C193.7 66.2002 193.9 65.7002 195.5 67.0002C197.2 68.4002 197.5 70.6002 196.1 71.4002C195.6 71.7002 195 71.0002 194.6 69.7002Z" fill="#8BA9E3"/>
<path d="M243.2 68.3C243.6 65.1 247 63.7 247 66.7C247 68.7 245.2 71 243.7 71C243.3 71 243 69.8 243.2 68.3Z" fill="#8BA9E3"/>
<path d="M331 52.4002C331.1 50.8002 333.8 47.9002 334.4 48.8002C334.7 49.3002 334.1 50.5002 333 51.5002C331.9 52.5002 331 52.9002 331 52.4002Z" fill="#8BA9E3"/>
<path d="M43.3 126.2C40.4 126 38 125.5 38 124.9C38 124.4 37 124 35.8 124C33.4 123.9 27 118.8 27 117C27 116.3 28.3 116.6 30.2 117.6C32 118.5 34.2 119.6 35.2 120.1C38.3 121.6 66 117.8 66 115.8C66 115.3 66.5 115.2 67 115.5C67.6 115.8 68.7 115.4 69.6 114.6C71.7 112.4 74.2 112.6 79 115.1C84.3 117.9 95 117.4 100.5 114.1C104.2 112 108 111.3 108 112.9C108 114.6 117 116.3 122.7 115.6C129.4 114.8 139 109.5 139 106.5C139 106 141.1 105.5 143.8 105.5C149.8 105.5 162 99.7001 162 96.8001C162 96.4001 163.4 94.6001 165 92.8001L168 89.6001V96.4001C168 102.2 167.7 103.6 165.8 105.1C164.7 106.2 163.3 107 162.9 107C162.5 107 161.4 107.7 160.5 108.6C159.7 109.5 155.8 110.7 151.9 111.4C147.4 112.1 144.3 113.2 143.5 114.3C142.8 115.2 141.9 116 141.5 116C141 116 139.7 116.9 138.5 118C135.7 120.7 121.2 122.9 117.8 121.3C112.7 118.8 109.5 118.2 108.3 119.5C107.6 120.2 105.2 121.1 102.8 121.5C100.4 121.9 98.1 122.5 97.6 122.8C96.1 123.7 85.5 122.9 85.2 121.9C85 121.4 84 121 83 121C82 121 80.8 120.6 80.5 120C79.6 118.5 76.3 118.8 75.7 120.3C75.4 121.1 72.3 122.3 68.8 123C65.4 123.7 62.1 124.5 61.6 124.8C59.6 126 50.6 126.6 43.3 126.2Z" fill="#677E84"/>
<path d="M186.1 117C179.7 115.6 171.7 109 176.5 109C177.3 109 178 109.5 178 110C178 111.4 188.9 111.3 193.1 109.9C195 109.2 197.4 107.9 198.6 106.9C201.1 104.6 203.3 104.5 205.4 106.6C207.9 109.1 223.8 109.7 232 107.6C235.5 106.7 238.8 105.3 239.3 104.5C239.7 103.7 240.8 103 241.7 103C243.8 103 252.6 93.8 255 88.9C256.1 86.9 257.4 83.2 258.1 80.6C258.7 78.1 259.8 76 260.5 76C262.1 76 264 80.4 264 84C264 90.7 254.3 106.3 248.9 108.2C247.3 108.7 246 109.6 246 110.1C246 110.5 244.1 111.4 241.8 112.1C239.4 112.7 237 113.6 236.4 114.1C235.8 114.6 235 114.7 234.7 114.3C234.3 114 234 114.2 234 114.7C234 116 216.8 115.4 213.5 114.1C207.2 111.4 206.6 111.4 204.9 112.9C203.9 113.7 202.1 114.5 200.8 114.7C199.6 114.9 198.3 115.5 198 116.1C197 117.5 191.1 118 186.1 117Z" fill="#677E84"/>
<path d="M278.5 110.9C275.8 110.2 272.2 106.4 273.2 105.4C273.4 105.2 280.8 104.9 289.5 104.6C298.3 104.3 308.9 103.6 313 103.1C319.6 102.1 320.8 101.6 323.3 98.8C325 96.7 326 94.4 326 92.3C326 90.3 326.5 89 327.3 89C328.8 89 332 94.5 332 97C332 100.3 328.4 107 326.6 107C326.4 107 324.9 107.5 323.3 108.1C321.8 108.8 319.3 109.2 317.9 109.1C316.4 109 310.8 109.4 305.4 110C290.8 111.5 281.9 111.9 278.5 110.9Z" fill="#677E84"/>
<path d="M353 108C352.2 107.5 350.3 107 348.8 107C347.2 107 346 106.6 346 106.1C346 105.6 344.8 104.9 343.3 104.5C340.4 103.8 336.3 99.7 337.9 99.2C338.5 99 340.4 99.5 342.2 100.3C346.5 102.2 352.8 103.1 353.6 101.9C353.9 101.4 354.6 101.2 355.1 101.6C355.7 101.9 359.2 101.2 362.9 100C373.6 96.6 381.2 88.7 383.9 78.3C384.5 75.9 385.5 72.2 386.1 70C386.8 67.7 387 63.4 386.7 59.5C386.3 55.9 386.4 53 386.9 53C387.3 53 388.6 54.8 389.9 57C392.5 61.7 393.7 70.2 392.2 73.3C391.6 74.5 390.9 76.7 390.6 78.3C390.3 79.8 389.7 82.2 389.4 83.8C387.5 92.7 379.2 103.1 372.9 104.5C371.3 104.9 370 105.5 370 106C370 107.6 355 109.4 353 108Z" fill="#677E84"/>
<path d="M88.4001 96.4001C89.2001 94.3001 94.1001 78.0001 94.7001 75.3001C95.1001 73.7001 96.1001 73.1001 99.1001 72.8001C101.2 72.6001 103 72.7001 103 73.0001C103 74.1001 100.3 81.0001 99.7001 81.6001C99.3001 82.0001 99.0001 83.5001 99.0001 85.0001C99.0001 86.5001 98.7001 88.0001 98.3001 88.4001C97.8001 88.8001 97.4001 89.6001 97.4001 90.1001C97.3001 90.6001 97.2001 91.4001 97.1001 92.0001C97.1001 92.5001 95.9001 94.1001 94.5001 95.5001C91.6001 98.3001 87.4001 99.0001 88.4001 96.4001Z" fill="#677E84"/>
<path d="M215.5 88.8998C215 88.1998 216.5 87.8998 220.1 87.9998C224.8 88.1998 227.5 87.6998 230.2 86.2998C230.6 86.0998 230.7 86.5998 230.4 87.2998C230.1 88.0998 228.9 89.0998 227.7 89.3998C224 90.3998 216.2 90.0998 215.5 88.8998Z" fill="#677E84"/>
<path d="M65.3999 85.5C65.0999 84.1 64.3999 83 63.9999 83C63.4999 83 62.8999 82.2 62.4999 81.1C62.1999 80.1 61.0999 78.2 59.9999 77C58.2999 75.1 58.2999 74.5 59.4999 72.6C60.2999 71.5 61.1999 68.6 61.5999 66.3C61.9999 63.9 62.5999 62 62.9999 62C65.5999 62 67.2999 72.9 65.4999 79.2C64.9999 81.1 65.1999 82.4 66.3999 83.5C68.1999 85.3 68.4999 88 66.9999 88C66.4999 88 65.7999 86.9 65.3999 85.5Z" fill="#677E84"/>
<path d="M309 81.5001C309 80.7001 310.8 78.2001 313 75.8001C315.2 73.4001 317 70.9001 317 70.3001C317 69.6001 317.4 69.0001 317.8 69.0001C318.7 69.0001 329.8 55.1001 331.4 51.9001C332 50.7001 333.2 49.5001 334 49.2001C335.2 48.8001 335.3 49.0001 334.3 50.1001C333.6 50.8001 333 52.6001 333 54.1001C333 55.6001 332.6 57.0001 332.2 57.2001C331.8 57.4001 330.4 60.7001 329.2 64.5001C327.9 68.7001 325.8 72.9001 324 74.8001C322.4 76.6001 321 78.5001 321 79.0001C321 79.5001 319.8 80.2001 318.3 80.6001C316.7 80.9001 314.8 81.4001 314 81.7001C310.7 83.0001 309 82.9001 309 81.5001Z" fill="#677E84"/>
<path d="M350.2 81.3001C350.2 80.8001 349.9 79.6001 349.5 78.6001C348.9 77.3001 349.1 76.5001 349.8 76.2001C350.5 76.0001 351 74.5001 351 73.0001C351 71.4001 351.5 69.8001 352 69.5001C352.6 69.2001 353 67.9001 353 66.7001C353.1 62.9001 356.5 59.8001 360.1 60.2001C361.9 60.4001 363.8 61.3001 364.4 62.3001C365.3 63.7001 364.9 64.5001 362.4 66.8001C359.5 69.3001 358.1 72.2001 356.6 79.3001C356.1 81.5001 355.4 82.0001 353 82.0001C351.3 82.0001 350.1 81.7001 350.2 81.3001Z" fill="#677E84"/>
<path d="M150.2 70.1001C150.4 64.3001 150.8 62.4001 151.8 62.7001C153.7 63.5001 154.4 68.0001 153.1 71.5001C152.5 73.2001 152 75.4001 152 76.3001C152 77.2001 151.5 78.0001 151 78.0001C150.3 78.0001 150.1 75.0001 150.2 70.1001Z" fill="#677E84"/>
<path d="M125 74.8C125.1 72.2 127.2 69 128.9 69C130.6 69 130.2 72.5 128.1 74.8C125.8 77.6 125 77.6 125 74.8Z" fill="#677E84"/>
<path d="M194.5 69.1C193.7 66.4 194.3 65.5 195.8 67.3C196.4 68 196.5 69.1 196.1 69.9C195.4 70.9 195.1 70.7 194.5 69.1Z" fill="#677E84"/>
<path d="M243.3 66.3C243.2 63.7 242.8 60.5 242.5 59.1L241.9 56.5L244.8 59.5C246.4 61.1 247.7 62.9 247.8 63.5C247.9 64 248.2 65.8 248.6 67.4C249.2 69.8 249 70.2 247.7 69.7C246.8 69.4 245.8 69.5 245.5 70C244.2 72.1 243.5 70.8 243.3 66.3Z" fill="#677E84"/>
<path d="M103.3 55.3C100.9 54.8 100.1 51.7 102 50.5C102.6 50.2 103 48.6 103 47C103 45.4 103.5 43.8 104 43.5C104.6 43.2 105 41.6 105 39.9C105 36.1 106.3 36.2 108.8 40.4C110.7 43.6 110.7 44.3 109.5 49C108.8 51.8 108.2 54.4 108.1 54.8C108.1 55.7 106.2 55.9 103.3 55.3Z" fill="#677E84"/>
<path d="M295.8 52.6999C294.4 52.1999 292.7 50.5999 292 49.1999L290.9 46.6999L295.8 47.3999C300.1 47.9999 300.9 47.6999 303.7 45.2999C305.3 43.6999 307.2 41.4999 307.9 40.2999C309.2 37.6999 312 37.1999 312 39.4999C312 40.2999 311.6 40.9999 311 40.9999C310.5 40.9999 310 41.7999 310 42.7999C309.9 44.8999 307.7 47.9999 306.1 47.9999C305.5 47.9999 305 48.4999 305 48.9999C305 50.4999 301.2 53.9999 299.8 53.8999C299.1 53.7999 297.3 53.2999 295.8 52.6999Z" fill="#677E84"/>
<path d="M383.3 50C382.4 48.3 381.2 47 380.8 47C378.6 47 380.4 45 383.2 44.2C388.2 42.9 390.5 39 390.5 31.5C390.5 27.9 390.8 25 391.2 25C394.3 25 397.2 40.4 394.9 44.8C393.1 48.5 390.2 51.2 389 50.5C388.4 50.2 388 50.3 388 50.8C388 53.3 384.9 52.7 383.3 50Z" fill="#677E84"/>
<path d="M361 38.6C361 36.5 363.8 34 366.1 34C367.5 34 368 34.7 368 37C368 39.8 367.7 40 364.5 40C362.1 40 361 39.5 361 38.6Z" fill="#677E84"/>
<path d="M336.2 35.0001C336.1 32.7001 335.6 30.2001 334.9 29.4001C333 27.1001 334.4 26.8001 336.8 29.0001C339.4 31.4001 339.5 32.8001 337.6 36.4001L336.2 39.1001V35.0001Z" fill="#677E84"/>
</g>
<defs>
<clipPath id="clip0_267_2">
<rect width="407" height="137" fill="white"/>
</clipPath>
</defs>
</svg>
